# xmcd
#
# Track frame offsets:
#	150
#	18600
#	40025
#	57174
#	72552
#	90772
#	110109
#	132127
#	151222
#	170722
#
# Disc length: 2495 seconds
#
# Revision: 2949201
# Processed by: cddbd v1.5.2PL0 Copyright (c) Steve Scherf et al.
# Submitted via: EZCDAudioConverter 8.0.2.1
#
DISCID=8009bd0a
DTITLE=Bảo Thy - Special Album
DYEAR=2011
DGENRE=World Pop
TTITLE0=Nơi đó
TTITLE1=Vì một người
TTITLE2=Ngày vắng anh
TTITLE3=Vẫn còn yêu anh
TTITLE4=Không như lời anh nói
TTITLE5=Nhớ rất nhớ (Solo Version)
TTITLE6=Everytime I Look Into Your Eyes
TTITLE7=Xa mãi xa
TTITLE8=Nhớ rất nhớ
TTITLE9=Nơi đó (Solo Version)
EXTD=
EXTT0=
EXTT1=
EXTT2=
EXTT3=
EXTT4=
EXTT5=
EXTT6=
EXTT7=
EXTT8=
EXTT9=
PLAYORDER=
